<svg xmlns="http://www.w3.org/2000/svg" xmlns:xlink="http://www.w3.org/1999/xlink" viewBox="0 0 332.05 313.59"><defs><style>.cls-1{fill:none;}.cls-2{fill:#991e95;}.cls-3{fill:url(#Dégradé_sans_nom);}.cls-4{fill:#fff;}</style><radialGradient id="Dégradé_sans_nom" cx="-524.19" cy="624.55" r="0.52" gradientTransform="matrix(366.86, 0, 0, -367.03, 192524.59, 229315.72)" gradientUnits="userSpaceOnUse"><stop offset="0" stop-color="#e65d1b"/><stop offset="0.05" stop-color="#e65d1b"/><stop offset="0.35" stop-color="#ed1c24"/><stop offset="1" stop-color="#a61217"/></radialGradient></defs><g id="Calque_2" data-name="Calque 2"><g id="svg2"><path class="cls-1" d="M196.76,60.49a84.24,84.24,0,0,0-31.49,21h0a91.59,91.59,0,0,0-19.49,33h0A127.16,127.16,0,0,0,139,156.6h0c0,32.32,9.1,57.42,27.14,76h0c18,18.49,43.18,27.84,76.27,27.87h0c14.11,0,26.54-1.82,37.3-5.37h0c19.68-6.93,41.82-26.56,45.59-45.08h0c2.46-12.11-4.95-14.73-8.95-15.28h0a22.76,22.76,0,0,0-2.39-.14h0a15.4,15.4,0,0,0-10.47,3.57h0c-2.77,2.54-10.82,10.1-15,13.72h0A118.91,118.91,0,0,1,274.8,222.2h0a58.77,58.77,0,0,1-15.88,7.28h0a65.36,65.36,0,0,1-18,2.32h0a52.18,52.18,0,0,1-27.17-7.34h0c-8.28-4.91-14.89-12.25-19.76-21.77h0c-4.54-8.8-7-18.85-7.44-30h0c-.13-3.71,2.7-5.93,6-5.93h99.4c13.4,0,23.57-1.95,30.45-5.51h0c6.12-3.17,9.6-10.18,9.66-22.91h0c0-13.68-3.49-27.1-10.57-40.41h0c-7-13.17-17.54-23.89-31.76-32.29h0c-14.11-8.32-31.07-12.53-51.11-12.53h0c-15.4,0-29.32,2.47-41.85,7.36m75.44,37.3c8.67,9.23,13.55,22.67,15.09,39.94h0c.21,2.88-2.83,5.41-5.93,5.41H192.72c-3.22,0-6.44-2.62-5.93-5.8h0c2-16.86,7.16-30.11,15.72-39.34h0c8.91-9.64,20.64-14.55,34.38-14.52h0c14.32,0,26.37,4.77,35.31,14.31"/><rect class="cls-1" x="139.03" y="53.13" width="193.01" height="207.32"/><path class="cls-2" d="M196.76,60.49a84.24,84.24,0,0,0-31.49,21h0a91.59,91.59,0,0,0-19.49,33h0A127.16,127.16,0,0,0,139,156.6h0c0,32.32,9.1,57.42,27.14,76h0c18,18.49,43.18,27.84,76.27,27.87h0c14.11,0,26.54-1.82,37.3-5.37h0c19.68-6.93,41.82-26.56,45.59-45.08h0c2.46-12.11-4.95-14.73-8.95-15.28h0a22.76,22.76,0,0,0-2.39-.14h0a15.4,15.4,0,0,0-10.47,3.57h0c-2.77,2.54-10.82,10.1-15,13.72h0A118.91,118.91,0,0,1,274.8,222.2h0a58.77,58.77,0,0,1-15.88,7.28h0a65.36,65.36,0,0,1-18,2.32h0a52.18,52.18,0,0,1-27.17-7.34h0c-8.28-4.91-14.89-12.25-19.76-21.77h0c-4.54-8.8-7-18.85-7.44-30h0c-.13-3.71,2.7-5.93,6-5.93h99.4c13.4,0,23.57-1.95,30.45-5.51h0c6.12-3.17,9.6-10.18,9.66-22.91h0c0-13.68-3.49-27.1-10.57-40.41h0c-7-13.17-17.54-23.89-31.76-32.29h0c-14.11-8.32-31.07-12.53-51.11-12.53h0c-15.4,0-29.32,2.47-41.85,7.36"/><path class="cls-3" d="M272.2,97.79c8.67,9.23,13.55,22.67,15.09,39.94h0c.21,2.88-2.83,5.41-5.93,5.41H192.72c-3.22,0-6.44-2.62-5.93-5.8h0c2-16.86,7.16-30.11,15.72-39.34h0c8.91-9.64,20.64-14.55,34.38-14.52h0c14.32,0,26.37,4.77,35.31,14.31"/><path class="cls-1" d="M0,156.8A156.73,156.73,0,0,0,156.73,313.59h0A156.75,156.75,0,0,0,313.45,156.8h0A156.76,156.76,0,0,0,156.73,0h0A156.75,156.75,0,0,0,0,156.8"/><rect class="cls-1" y="0.01" width="313.45" height="313.59"/><g id="g142"><path id="path158" class="cls-2" d="M0,156.8A156.73,156.73,0,0,0,156.73,313.59h0A156.75,156.75,0,0,0,313.45,156.8h0A156.76,156.76,0,0,0,156.73,0h0A156.75,156.75,0,0,0,0,156.8"/></g><path class="cls-1" d="M196.76,60.49a84.24,84.24,0,0,0-31.49,21h0a91.59,91.59,0,0,0-19.49,33h0A127.16,127.16,0,0,0,139,156.6h0c0,32.32,9.1,57.42,27.14,76h0c18,18.49,43.18,27.84,76.27,27.87h0c13.6,0,25.61-1.7,36.1-5h0a156.48,156.48,0,0,0,30.13-60.1h0a13.37,13.37,0,0,0-5.15,2.8h0c-2.77,2.54-10.82,10.1-15,13.72h0A118.91,118.91,0,0,1,274.8,222.2h0a58.77,58.77,0,0,1-15.88,7.28h0a65.36,65.36,0,0,1-18,2.32h0a52.18,52.18,0,0,1-27.17-7.34h0c-8.28-4.91-14.89-12.25-19.76-21.77h0c-4.54-8.8-7-18.85-7.44-30h0c-.13-3.71,2.7-5.93,6-5.93h99.4a90.25,90.25,0,0,0,21.32-2.19h0c.12-2.59.19-5.18.19-7.79h0a156.08,156.08,0,0,0-32.52-95.61h0c-12.22-5.35-26.28-8.06-42.32-8.06h0c-15.4,0-29.32,2.47-41.85,7.36m75.44,37.3c8.67,9.23,13.55,22.67,15.09,39.94h0c.21,2.88-2.83,5.41-5.93,5.41H192.72c-3.22,0-6.44-2.62-5.93-5.8h0c2-16.86,7.16-30.11,15.72-39.34h0c8.91-9.64,20.64-14.55,34.38-14.52h0c14.32,0,26.37,4.77,35.31,14.31"/><rect class="cls-1" x="139.03" y="53.13" width="174.41" height="207.32"/><g id="g198"><path id="path214" class="cls-4" d="M165.26,81.53a91.7,91.7,0,0,0-19.49,33A127.32,127.32,0,0,0,139,156.6h0c0,32.32,9.1,57.42,27.14,76h0c18,18.49,43.18,27.84,76.27,27.87h0c13.6,0,25.61-1.7,36.1-5h0a156.48,156.48,0,0,0,30.13-60.1h0a14.47,14.47,0,0,0-5.88,3.47c-2,1.87-10.08,9.43-14.26,13.08a119.62,119.62,0,0,1-13.8,10.35,58.93,58.93,0,0,1-15.83,7.25c-5.48,1.56-11.49,2.31-19.66,2.32a51,51,0,0,1-25.54-7.36,52.14,52.14,0,0,1-19.56-21.4,71.85,71.85,0,0,1-7.6-30.34h0c-.13-3.71,2.7-5.93,4.35-5.93h101a90.25,90.25,0,0,0,21.32-2.19h0c.12-2.59.19-5.18.19-7.79h0a156.08,156.08,0,0,0-32.52-95.61h0c-12.22-5.35-26.28-8.06-42-8.06s-29.64,2.47-42.17,7.36a84.26,84.26,0,0,0-31.5,21Zm122,56.2h0c.21,2.88-2.83,5.41-5.93,5.41H192.72c-3.22,0-6.44-2.62-5.93-5.8h0c2-16.86,7.16-30.11,15.89-39.55s20.47-14.34,34.5-14.34,26.08,4.8,35,14.34C280.87,107,285.75,120.46,287.29,137.73Z"/></g></g></g></svg>